<?xml version="1.0" encoding="UTF-8" standalone="no"?><!-- Generator: Gravit.io --><svg xmlns="http://www.w3.org/2000/svg" xmlns:xlink="http://www.w3.org/1999/xlink" style="isolation:isolate" viewBox="0 0 1000 1000" width="1000pt" height="1000pt"><defs><clipPath id="_clipPath_IhqLKZrc9aahRNNVqwVHibraULBWZlTP"><rect width="1000" height="1000"/></clipPath></defs><g clip-path="url(#_clipPath_IhqLKZrc9aahRNNVqwVHibraULBWZlTP)"><path d=" M 157 248 L 196 695 L 107 761 L 52 184 L 157 248 Z " fill="rgb(182,200,18)"/><path d=" M 500 -9 L 500 102 L 163 239 L 58 175 L 500 -9 Z " fill="rgb(236,255,65)"/><path d=" M 282 870 L 330 779 L 196 695 L 107 761 L 282 870 Z " fill="rgb(24,142,153)"/><path d=" M 494 1000 L 494 879 L 330 779 L 282 870 L 494 1000 Z " fill="rgb(202,12,50)"/><path d=" M 843 248 L 804 695 L 893 761 L 948 184 L 843 248 Z " fill="rgb(255,241,47)"/><path d=" M 500 -9 L 500 102 L 837 239 L 942 175 L 500 -9 Z " fill="rgb(236,255,65)"/><path d=" M 718 870 L 670 779 L 804 695 L 893 761 L 718 870 Z " fill="rgb(46,213,229)"/><path d=" M 506 1000 L 506 879 L 670 779 L 718 870 L 506 1000 Z " fill="rgb(255,32,75)"/><text transform="matrix(1,0,0,1,332.8,435)" style="font-family:'Poppins';font-weight:800;font-size:220px;font-style:normal;fill:#ffffff;stroke:none;">NG</text><text transform="matrix(1,0,0,1,330.16,727.6)" style="font-family:'Poppins';font-weight:800;font-size:220px;font-style:normal;fill:#ffffff;stroke:none;">CO</text><text transform="matrix(1,0,0,1,334.033,540.15)" style="font-family:'Poppins';font-weight:800;font-size:115px;font-style:normal;fill:#ffffff;stroke:none;">CONF</text></g></svg>